<?xml version="1.0" encoding="utf-8"?>
<!-- Generator: Adobe Illustrator 18.0.0, SVG Export Plug-In . SVG Version: 6.00 Build 0)  -->
<!DOCTYPE svg PUBLIC "-//W3C//DTD SVG 1.1//EN" "http://www.w3.org/Graphics/SVG/1.1/DTD/svg11.dtd">
<svg version="1.1" id="Calque_1" xmlns="http://www.w3.org/2000/svg" xmlns:xlink="http://www.w3.org/1999/xlink" x="0px" y="0px"
	 viewBox="0 0 500 105" enable-background="new 0 0 500 105" xml:space="preserve">
<path fill="#FFFFFF" d="M391.7,0.3V66c0,21.4,18.6,38.7,53.7,38.7c34.2,0,54.4-16,54.6-38.9V0.3h-26.7v63.3
	c-1.7,11.3-11.8,20.8-27.7,20.8c-18.2,0-26.9-7.4-27-21.1v-63H391.7z M264.2,102.5H291V37.7l57.3,64.8h25.4V0.3h-27v64.4L289.6,0.3
	h-25.4V102.5z M148.8,102.5h99.5V82h-72.8V60.2h67.6V39.7h-67.6V20.7h72.8V0.3h-99.5V102.5z M0,102.5h26.7V46.8l27.6,55.7h22.2
	l27.9-56.5v56.5H131V0.3H99.7L65.6,69.8L31.1,0.3H0V102.5z"/>
</svg>
